<?xml version="1.0" encoding="UTF-8" standalone="no"?>
<!-- Created with Inkscape (http://www.inkscape.org/) -->

<svg
   width="75.132614mm"
   height="69.845863mm"
   viewBox="0 0 75.132614 69.845863"
   version="1.1"
   id="svg1"
   inkscape:version="1.3.2 (091e20e, 2023-11-25, custom)"
   sodipodi:docname="Arrow reverse.svg"
   inkscape:export-filename="Arrow reverse.png"
   inkscape:export-xdpi="94.623001"
   inkscape:export-ydpi="94.623001"
   xmlns:inkscape="http://www.inkscape.org/namespaces/inkscape"
   xmlns:sodipodi="http://sodipodi.sourceforge.net/DTD/sodipodi-0.dtd"
   xmlns="http://www.w3.org/2000/svg"
   xmlns:svg="http://www.w3.org/2000/svg">
  <sodipodi:namedview
     id="namedview1"
     pagecolor="#ffffff"
     bordercolor="#000000"
     borderopacity="0.25"
     inkscape:showpageshadow="2"
     inkscape:pageopacity="0.0"
     inkscape:pagecheckerboard="0"
     inkscape:deskcolor="#d1d1d1"
     inkscape:document-units="mm"
     inkscape:zoom="0.83651094"
     inkscape:cx="-4.1840457"
     inkscape:cy="108.18747"
     inkscape:window-width="1920"
     inkscape:window-height="1177"
     inkscape:window-x="-8"
     inkscape:window-y="-8"
     inkscape:window-maximized="1"
     inkscape:current-layer="layer1" />
  <defs
     id="defs1" />
  <g
     inkscape:label="Calque 1"
     inkscape:groupmode="layer"
     id="layer1"
     transform="translate(-60.845643,-111.67949)">
    <g
       id="g5"
       style="fill:#ffffff">
      <path
         id="path2"
         style="color:#000000;fill:#ffffff;-inkscape-stroke:none"
         d="m 101.05688,111.67949 c -18.654116,0 -34.010349,14.81915 -34.882108,33.26722 l 12.412679,-11.436 3.070097,3.31763 c 3.551019,-7.0935 10.866051,-11.9202 19.399332,-11.9202 12.05944,0 21.69325,9.63381 21.69325,21.69325 0,12.05944 -9.63381,21.69531 -21.69325,21.69531 -3.610616,0 -7.000828,-0.86898 -9.983369,-2.40295 l -10.051066,9.2599 c 5.682047,4.00596 12.593326,6.3717 20.034435,6.3717 19.20899,0 34.92138,-15.71496 34.92138,-34.92396 0,-19.20899 -15.71239,-34.9219 -34.92138,-34.9219 z" />
      <path
         sodipodi:type="star"
         style="fill:#ffffff;fill-opacity:1;stroke:none;stroke-width:10.5833;stroke-dasharray:none;stroke-opacity:1"
         id="path3"
         inkscape:flatsided="false"
         sodipodi:sides="3"
         sodipodi:cx="59.779556"
         sodipodi:cy="95.362617"
         sodipodi:r1="25.684645"
         sodipodi:r2="12.842322"
         sodipodi:arg1="0.93837851"
         sodipodi:arg2="1.9855761"
         inkscape:rounded="-3.469447e-18"
         inkscape:randomized="0"
         d="M 74.961665,116.07987 54.604249,107.11598 34.246835,98.152083 52.188502,85.003991 70.130169,71.855899 72.545917,93.967885 Z"
         inkscape:transform-center-x="0.059096207"
         inkscape:transform-center-y="2.0880731"
         transform="matrix(-0.80346649,0.00794687,-0.00794687,-0.80346649,121.9973,216.46784)" />
    </g>
  </g>
</svg>
